<?xml version="1.0" standalone="no"?>
<!DOCTYPE svg PUBLIC "-//W3C//DTD SVG 20010904//EN"
 "http://www.w3.org/TR/2001/REC-SVG-20010904/DTD/svg10.dtd">
<svg version="1.0" xmlns="http://www.w3.org/2000/svg"
 width="739.000000pt" height="739.000000pt" viewBox="0 0 739.000000 739.000000"
 preserveAspectRatio="xMidYMid meet">

<g transform="translate(0.000000,739.000000) scale(0.100000,-0.100000)"
fill="red" stroke="none">
<path d="M4560 7380 c0 -5 -7 -10 -15 -10 -8 0 -27 -22 -43 -50 -16 -27 -31
-47 -34 -44 -3 3 -15 -6 -26 -20 -11 -15 -25 -26 -32 -26 -8 0 -11 -14 -9 -44
3 -30 0 -42 -7 -39 -13 5 -39 -61 -30 -75 3 -5 -1 -30 -9 -57 -17 -54 -20
-105 -6 -105 13 0 22 -45 27 -145 2 -49 9 -92 15 -96 6 -4 7 -8 2 -10 -16 -7
-53 -76 -53 -100 0 -13 9 -37 20 -54 11 -16 25 -39 32 -50 7 -11 16 -22 19
-25 4 -3 18 -27 33 -55 48 -93 91 -163 114 -189 28 -33 28 -40 -2 -59 -15 -10
-30 -37 -42 -72 -9 -32 -23 -62 -30 -68 -32 -28 -44 -37 -51 -37 -4 0 -17 -20
-28 -43 -16 -33 -21 -68 -23 -162 -5 -165 18 -267 74 -325 12 -12 14 -12 14 8
0 20 26 42 50 42 7 0 8 -6 0 -19 -8 -16 -5 -23 15 -39 l25 -20 -27 -11 -28
-11 28 5 c17 4 26 2 23 -4 -4 -5 -2 -12 4 -16 5 -3 10 3 10 14 0 14 6 21 19
21 11 0 21 5 23 12 3 9 6 9 12 0 4 -7 -3 -14 -19 -18 -24 -6 -25 -9 -23 -76 1
-38 5 -71 9 -74 5 -3 18 1 29 8 17 11 22 11 29 -1 5 -7 14 -10 20 -7 15 10 14
47 -1 44 -8 -2 -12 5 -9 17 2 11 3 35 3 54 -1 21 6 40 16 48 16 12 16 14 0 23
-17 10 -17 14 -3 47 9 21 13 43 11 49 -3 9 1 11 12 7 14 -6 15 -4 5 9 -11 12
-9 18 6 32 11 10 17 25 14 34 -4 9 -2 13 4 9 5 -3 31 5 56 18 25 14 58 25 72
25 14 0 48 12 76 27 109 56 219 71 219 28 0 -8 5 -15 12 -15 6 0 20 -8 30 -17
17 -16 21 -15 56 5 20 12 36 25 35 30 -3 12 112 35 143 29 15 -2 39 -1 53 3
15 4 53 4 86 -1 38 -5 66 -4 79 3 11 6 42 10 68 9 27 -1 59 4 71 11 85 48 207
73 347 72 176 -1 414 -47 460 -89 9 -8 21 -15 26 -15 5 0 25 -8 44 -18 48 -26
203 -78 273 -92 45 -9 61 -9 72 0 22 18 199 21 254 4 25 -8 65 -14 89 -14 l42
0 0 368 0 369 -52 0 c-45 0 -54 3 -75 29 -14 18 -22 37 -18 49 2 11 5 35 5 53
0 22 5 32 15 32 8 0 15 5 15 10 0 6 25 10 55 10 l55 0 0 430 0 430 -455 0
-455 0 0 -40 c0 -36 -2 -40 -25 -40 -22 0 -25 -4 -25 -40 0 -29 -4 -40 -15
-40 -11 0 -15 -11 -15 -40 0 -33 -3 -40 -20 -40 -29 0 -25 -14 13 -44 29 -23
32 -30 29 -71 -2 -25 -8 -45 -13 -45 -5 0 -9 -7 -9 -17 0 -9 3 -13 6 -10 4 3
16 -5 27 -19 16 -20 17 -28 7 -34 -10 -6 -7 -14 13 -33 15 -13 27 -33 27 -44
0 -10 35 -53 80 -97 63 -61 80 -84 80 -106 0 -16 5 -32 10 -35 13 -8 13 -85 1
-85 -6 0 -11 -17 -13 -37 l-3 -38 -24 38 c-22 36 -51 50 -51 25 0 -9 -3 -9
-12 0 -7 7 -25 12 -40 12 -19 0 -28 5 -28 15 0 24 -51 67 -73 61 -12 -3 -30 8
-52 32 -26 28 -35 33 -35 20 0 -22 -4 -22 -38 -4 -15 7 -39 19 -54 26 -16 8
-28 21 -28 32 0 10 -7 21 -15 24 -8 4 -12 10 -9 15 3 5 0 9 -5 9 -6 0 -11 -6
-11 -14 0 -27 -20 -28 -30 -2 -5 14 -17 26 -26 26 -9 0 -36 20 -60 44 -36 35
-44 50 -44 80 0 20 -4 36 -10 36 -5 0 -10 22 -10 49 0 27 -7 65 -15 84 -8 20
-15 52 -15 72 0 24 -4 35 -15 35 -8 0 -15 5 -15 10 0 6 -9 19 -20 30 -11 11
-20 28 -20 39 0 24 -23 43 -44 35 -10 -4 -19 2 -27 20 -7 14 -19 26 -27 26 -8
0 -33 18 -54 40 -44 45 -48 47 -48 24 0 -15 -2 -15 -25 0 -22 14 -84 16 -560
16 -350 0 -535 -3 -535 -10z m-190 -800 c0 -5 -2 -10 -4 -10 -3 0 -8 5 -11 10
-3 6 -1 10 4 10 6 0 11 -4 11 -10z m310 -615 c6 -8 18 -47 27 -87 8 -40 21
-77 29 -81 9 -5 12 -17 8 -31 -3 -13 -1 -27 5 -30 6 -4 11 -16 11 -27 0 -11
-4 -18 -10 -14 -5 3 -32 -6 -59 -20 -28 -14 -55 -25 -61 -25 -6 0 -18 -7 -26
-15 -21 -20 -33 -19 -27 4 3 14 -2 20 -27 24 -53 11 -78 112 -35 147 8 6 16
24 20 39 7 33 68 101 91 101 9 0 14 6 11 13 -7 18 29 19 43 2z m275 -214 c6
-3 18 -6 27 -6 10 0 18 -4 18 -10 1 -14 -31 -19 -39 -6 -4 6 -36 17 -72 25
l-64 15 60 -6 c33 -3 65 -8 70 -12z m-479 -38 c-11 -11 -19 6 -11 24 8 17 8
17 12 0 3 -10 2 -21 -1 -24z m204 -213 c0 -5 -5 -10 -11 -10 -5 0 -7 5 -4 10
3 6 8 10 11 10 2 0 4 -4 4 -10z"/>
<path d="M2985 7332 c-1 -2 -36 -5 -76 -8 -152 -9 -354 -30 -368 -38 -8 -5
-30 -10 -49 -12 -41 -3 -92 -23 -92 -35 0 -5 -18 -9 -39 -9 -22 0 -41 -3 -43
-7 -4 -11 -67 -43 -82 -43 -7 0 -23 -9 -36 -20 -13 -12 -30 -18 -37 -16 -7 3
-13 2 -13 -2 -1 -14 -52 -44 -83 -49 -18 -3 -39 -10 -47 -17 -8 -7 -23 -16
-32 -19 -10 -4 -18 -11 -18 -17 0 -5 -6 -10 -13 -10 -7 0 -22 -8 -33 -18 -10
-9 -29 -22 -42 -27 -23 -10 -87 -67 -207 -182 -36 -35 -72 -63 -79 -63 -8 0
-18 -10 -22 -22 -4 -13 -15 -34 -26 -48 -10 -14 -37 -48 -58 -77 -22 -29 -40
-59 -40 -66 0 -8 -11 -26 -25 -41 -14 -15 -25 -37 -25 -50 0 -12 -4 -26 -8
-31 -5 -6 -15 -37 -22 -70 -7 -33 -17 -64 -21 -70 -8 -12 -24 -77 -21 -88 1
-5 -4 -27 -12 -50 -8 -23 -14 -68 -15 -101 0 -32 -5 -73 -10 -90 -23 -71 1
-534 31 -590 6 -11 13 -36 15 -55 2 -20 8 -45 12 -56 16 -39 76 -160 81 -165
12 -11 60 -113 60 -127 0 -36 112 -244 152 -280 56 -53 88 -112 92 -169 3 -48
59 -180 106 -249 11 -16 26 -42 32 -57 8 -19 20 -28 35 -28 18 0 23 -6 23 -25
0 -14 -5 -25 -11 -25 -6 0 -27 -13 -46 -30 -18 -16 -38 -30 -42 -30 -5 0 -14
-13 -20 -30 -9 -28 -13 -30 -61 -30 -41 0 -60 6 -98 32 -29 20 -47 27 -50 20
-2 -7 -12 -12 -23 -12 -37 0 -19 -30 31 -52 28 -12 45 -25 39 -29 -7 -4 -4
-11 9 -20 14 -10 20 -26 20 -52 0 -37 0 -37 -41 -38 -23 -1 -46 0 -52 1 -5 1
-28 3 -51 4 -22 2 -50 9 -62 15 -12 7 -28 9 -34 5 -7 -4 -8 -3 -4 4 20 32
-259 46 -334 16 -16 -6 59 -34 92 -34 35 0 132 -53 177 -96 25 -24 51 -44 58
-44 7 0 13 -8 13 -17 0 -10 7 -27 15 -37 8 -11 15 -39 15 -63 0 -34 -4 -43
-17 -44 -10 0 0 -6 22 -13 22 -7 46 -11 53 -8 6 2 12 -1 12 -7 0 -14 -59 -51
-82 -51 -9 0 -19 -6 -22 -12 -5 -10 -7 -10 -12 0 -6 13 -46 17 -57 6 -4 -4
-20 -8 -36 -9 -31 -3 -56 -22 -140 -106 -59 -60 -63 -74 -16 -66 29 5 35 3 35
-12 0 -26 -45 -71 -70 -71 -13 0 -20 5 -18 12 6 17 -77 56 -148 70 -56 11
-156 4 -304 -24 -30 -5 -87 -13 -126 -17 -52 -6 -78 -14 -95 -30 -19 -17 -20
-21 -6 -21 9 0 17 4 17 8 0 14 89 32 162 32 67 0 71 -1 56 -16 -11 -11 -46
-19 -108 -25 -104 -10 -132 -23 -119 -56 5 -13 12 -23 18 -23 5 0 11 -9 14
-20 3 -11 13 -20 22 -20 9 0 30 -7 47 -16 17 -9 58 -18 91 -20 116 -9 221 -42
247 -76 8 -11 23 -29 33 -39 12 -14 17 -38 18 -91 1 -40 4 -59 6 -43 13 113
15 121 24 97 5 -13 22 -28 39 -33 16 -6 30 -15 30 -20 0 -6 9 -19 20 -31 26
-28 26 -48 0 -48 -14 0 -20 -7 -20 -21 0 -20 4 -21 50 -16 31 4 52 2 56 -5 11
-17 -26 -38 -68 -38 -38 0 -38 0 -38 -40 0 -31 4 -40 18 -40 49 -1 87 -80 38
-80 -13 0 -26 7 -30 15 -10 27 -26 15 -26 -20 0 -39 -25 -71 -62 -78 -23 -4
-23 -4 0 -6 18 -1 22 -7 22 -35 0 -29 -3 -33 -20 -29 -11 3 -20 1 -20 -5 0 -6
18 -13 40 -17 54 -9 56 -40 3 -50 -24 -4 -39 -3 -41 4 -2 6 -21 11 -43 11 -42
0 -43 -1 -39 -73 2 -38 1 -38 -36 -35 -26 2 -38 8 -42 20 -2 10 -11 18 -18 18
-8 0 -14 6 -14 14 0 8 -16 16 -42 20 -24 4 -52 17 -66 31 -14 14 -29 25 -34
25 -5 0 -4 9 2 19 15 29 12 50 -4 29 -16 -22 -42 -23 -50 -2 -3 8 -10 13 -16
9 -5 -3 -24 2 -41 11 -21 10 -34 12 -38 5 -4 -5 -12 -6 -20 -2 -10 7 -9 9 3
14 29 12 16 25 -27 28 -38 4 -43 2 -39 -13 3 -13 -2 -18 -18 -18 -19 0 -20 -2
-10 -15 7 -8 25 -15 41 -15 28 0 33 -7 30 -41 -2 -18 25 -33 41 -23 6 4 8 -1
3 -15 -6 -19 -3 -21 34 -21 41 0 41 0 41 -39 0 -31 -4 -40 -23 -46 -27 -9 -50
-6 -58 7 -4 6 -16 7 -30 2 -13 -4 -48 -7 -76 -5 -29 1 -53 -2 -53 -7 0 -5 -9
-12 -20 -15 -11 -3 -20 -10 -20 -17 0 -7 9 -14 20 -17 11 -3 20 -11 20 -18 0
-6 18 -20 40 -31 22 -10 40 -26 40 -34 0 -9 18 -27 40 -40 22 -14 40 -31 40
-38 0 -7 8 -16 18 -19 9 -4 21 -12 25 -20 4 -7 15 -13 22 -13 10 0 15 -11 15
-36 0 -36 25 -67 69 -86 11 -5 12 -7 3 -7 -15 -1 145 -161 160 -161 5 0 14 -4
21 -10 73 -60 128 -100 136 -100 6 0 11 -3 11 -8 0 -4 16 -16 36 -27 19 -10
43 -31 52 -47 9 -15 22 -28 29 -28 7 0 13 -4 13 -10 0 -5 7 -10 15 -10 8 0 15
-7 15 -15 0 -9 -6 -12 -15 -9 -8 4 -15 10 -15 15 0 5 -7 9 -15 9 -8 0 -15 4
-15 9 0 5 -15 16 -33 25 -19 8 -42 27 -53 41 -10 14 -24 25 -30 25 -10 0 -24
10 -71 50 -7 5 -18 10 -25 10 -8 0 -21 8 -30 18 -29 31 -102 79 -140 93 -21 7
-38 17 -38 21 0 4 -6 8 -13 8 -8 0 -24 11 -37 25 -13 14 -28 25 -33 25 -6 0
-25 11 -43 25 -18 14 -36 25 -41 25 -12 1 -73 58 -73 70 0 5 -7 10 -15 10 -19
0 -61 43 -69 72 -3 12 -20 38 -36 56 -27 29 -35 32 -68 27 -25 -5 -33 -3 -23
3 11 8 10 12 -8 23 -12 8 -21 24 -21 38 0 41 -22 9 -24 -35 -1 -22 -5 -44 -8
-49 -3 -6 -9 -27 -13 -47 -4 -21 -13 -42 -21 -49 -8 -6 -14 -20 -14 -30 0 -10
-4 -21 -10 -24 -22 -14 -31 -83 -19 -154 7 -39 16 -71 20 -71 5 0 9 -18 9 -40
0 -33 3 -40 20 -40 17 0 20 -7 20 -45 0 -34 -4 -47 -17 -52 -41 -15 -59 -68
-20 -59 12 3 16 3 10 0 -7 -3 -13 -12 -13 -20 0 -10 12 -14 40 -14 l40 0 0
-40 0 -40 40 0 c25 0 40 -5 40 -12 0 -13 44 -38 67 -38 7 0 13 -5 13 -11 0 -8
26 -9 83 -5 51 3 73 2 57 -3 -24 -9 -24 -9 -2 -10 17 -1 22 -7 22 -26 0 -22
-4 -25 -40 -25 -22 0 -40 -4 -40 -9 0 -5 -16 -12 -35 -15 -44 -9 -45 -22 -3
-32 35 -7 71 -40 65 -58 -2 -6 -13 -12 -25 -14 -11 -2 -26 -10 -32 -18 -10
-11 -9 -14 9 -14 14 0 21 -6 21 -20 0 -12 7 -20 16 -20 9 0 18 -9 21 -20 7
-25 39 -26 45 -2 3 10 14 18 25 19 16 1 20 -3 16 -18 -4 -14 0 -19 16 -19 12
0 21 -6 21 -16 0 -8 4 -13 9 -10 5 4 12 0 15 -6 3 -7 3 -3 0 9 -4 17 -1 23 10
23 12 0 16 10 16 40 0 39 1 40 34 40 25 0 35 -5 39 -20 3 -11 12 -20 21 -20 9
0 16 8 16 20 0 11 5 20 10 20 6 0 10 -8 10 -19 0 -23 16 -36 55 -46 17 -4 24
-10 18 -12 -7 -3 -13 -18 -13 -34 0 -27 2 -29 40 -29 35 0 40 -3 40 -22 0 -17
10 -27 39 -39 33 -14 39 -21 37 -43 -2 -19 1 -26 14 -26 10 0 23 -7 30 -15 7
-8 19 -15 26 -15 8 0 14 -4 14 -10 0 -16 -77 -12 -83 4 -3 8 -38 21 -77 30
-40 9 -93 27 -119 40 -60 31 -267 64 -335 54 -55 -8 -83 5 -100 46 -6 14 -39
45 -74 70 -34 25 -62 50 -62 56 0 5 -7 10 -15 10 -8 0 -15 5 -15 10 0 6 -6 10
-14 10 -8 0 -28 13 -46 30 -18 16 -38 30 -45 30 -7 0 -15 7 -19 15 -3 8 -12
15 -21 15 -13 0 -15 -20 -15 -134 l0 -135 44 -6 c25 -4 49 -4 55 -1 5 4 14 -1
19 -10 7 -13 3 -23 -18 -41 -15 -12 -37 -23 -48 -23 -63 0 -71 -37 -9 -43 l42
-4 -42 -1 -43 -2 0 -170 c0 -155 2 -170 18 -170 25 0 40 12 51 40 9 23 10 21
10 -15 1 -37 4 -41 28 -43 14 -1 28 -4 30 -6 3 -3 -50 -18 -109 -31 -26 -5
-28 -9 -28 -51 0 -40 2 -45 18 -39 9 5 49 17 87 27 59 17 92 19 215 14 321
-11 553 -66 721 -172 48 -30 92 -61 99 -69 11 -13 245 -15 1865 -15 l1852 0
14 107 c10 81 13 227 12 585 -2 559 -6 544 89 398 20 -30 52 -73 73 -95 20
-22 45 -56 55 -76 25 -49 20 -45 209 -146 35 -18 75 -42 89 -53 13 -11 35 -20
47 -20 21 0 75 -50 75 -70 0 -5 5 -10 10 -10 6 0 10 -7 10 -16 0 -18 59 -205
70 -219 4 -5 15 -37 25 -70 39 -135 69 -223 92 -267 l23 -48 65 0 c79 0 83 11
25 71 -22 23 -40 48 -40 56 0 7 -10 17 -23 22 -15 6 -27 23 -35 48 -6 21 -25
54 -42 73 -25 29 -29 41 -25 75 2 22 2 32 -1 23 -7 -24 -24 -23 -24 1 0 11 -7
27 -16 35 -8 9 -13 20 -10 24 3 5 -1 26 -8 47 -8 24 -16 33 -19 24 -4 -8 -4
-1 0 14 4 20 0 32 -12 41 -14 10 -17 23 -13 64 4 36 1 52 -8 56 -7 3 -16 30
-19 61 -4 30 -11 58 -16 61 -5 3 -9 15 -9 28 0 12 -5 27 -11 33 -9 9 -9 19 0
41 10 23 9 35 -1 58 -7 16 -16 31 -20 34 -4 3 -12 28 -19 55 -6 28 -15 58 -20
67 -5 10 -9 26 -9 36 0 31 -58 254 -69 265 -6 6 -11 22 -11 34 0 13 -8 38 -17
56 -10 18 -18 42 -20 54 -1 12 -9 35 -17 52 -9 16 -23 58 -30 92 -8 34 -20 65
-27 69 -6 4 -9 13 -5 18 7 12 -18 98 -41 142 -7 14 -13 32 -13 40 0 9 -7 25
-15 37 -11 16 -12 24 -4 29 9 5 7 11 -6 20 -17 13 -29 53 -44 149 -4 28 -13
63 -19 78 -7 16 -12 42 -12 58 0 17 -8 44 -17 62 -9 18 -18 46 -19 62 -2 17
-8 62 -14 102 -7 46 -8 93 -3 130 12 81 7 102 -25 109 -15 4 -32 11 -39 16 -6
5 -23 6 -38 2 -27 -7 -27 -7 -11 18 l16 25 -62 6 c-35 3 -80 13 -100 21 -21 9
-50 16 -66 16 -15 0 -37 7 -48 15 -10 8 -25 15 -32 15 -22 0 -72 43 -72 61 0
15 -25 30 -57 33 -6 1 -15 4 -18 8 -4 4 -13 4 -20 2 -26 -10 -128 57 -107 70
6 3 17 3 26 0 19 -7 21 7 4 24 -9 9 -5 12 19 12 19 0 33 6 37 16 9 25 7 64 -4
64 -5 0 -10 18 -10 40 l0 40 -55 0 -55 0 0 -35 c0 -34 1 -35 43 -37 39 -1 40
-1 8 -5 -26 -3 -31 -7 -20 -14 12 -8 12 -10 0 -18 -11 -7 -11 -9 0 -14 8 -2 1
-8 -16 -12 -16 -5 -33 -13 -37 -19 -4 -6 -10 -7 -15 -3 -4 5 -1 12 7 17 13 8
13 13 -2 37 -21 36 -45 42 -44 11 1 -17 -5 -24 -23 -26 -13 -2 -28 2 -35 8 -8
10 -4 11 22 7 18 -4 32 -2 32 3 0 6 -6 10 -14 10 -15 0 -66 62 -66 79 0 6 -7
11 -15 11 -8 0 -15 3 -15 8 0 4 -16 18 -35 31 -19 13 -35 27 -35 31 0 21 55
60 84 60 32 0 101 20 171 50 22 10 51 21 64 25 l24 7 -23 13 c-17 9 -19 14 -9
17 11 4 10 7 -4 13 -10 4 -23 3 -29 -3 -6 -6 -23 -5 -51 6 -31 13 -41 14 -45
4 -3 -9 -13 -7 -38 9 -19 12 -38 19 -41 16 -3 -4 -23 3 -44 13 l-38 20 -4 -23
c-3 -21 -4 -21 -12 -2 -4 11 -21 34 -38 52 -18 19 -27 38 -24 47 4 10 -1 20
-13 26 -11 6 -20 21 -20 33 1 20 2 20 11 4 10 -16 11 -16 28 4 17 21 31 23
202 32 101 6 186 13 189 16 3 3 21 14 41 23 25 11 38 25 41 42 8 42 -11 57
-73 57 -30 0 -59 0 -64 -1 -6 -2 -31 -2 -57 -1 -36 1 -48 5 -48 16 0 9 -9 15
-25 15 -14 0 -25 -4 -25 -10 0 -5 -4 -10 -10 -10 -5 0 -10 7 -10 15 0 11 -16
15 -67 17 -62 3 -68 5 -71 26 -4 27 -28 29 -42 2 -16 -29 -37 -25 -45 9 -7 35
-33 47 -54 27 -13 -14 -17 -14 -36 4 -20 18 -21 18 -60 0 -22 -10 -34 -19 -27
-19 11 -1 10 -4 -1 -16 -13 -13 -23 -13 -79 -1 -34 8 -54 14 -43 15 37 2 -8
32 -76 51 -62 17 -64 18 -71 56 -3 21 -11 50 -16 63 -11 31 -4 71 14 71 8 0
14 -5 14 -11 0 -7 11 -9 26 -6 47 9 282 -9 299 -23 12 -10 19 -10 27 -2 18 18
38 14 36 -5 -4 -48 3 -73 24 -84 29 -16 51 12 42 57 -3 18 -1 35 5 38 6 4 11
1 12 -6 9 -119 18 -155 20 -82 1 21 2 46 3 54 2 23 122 29 235 12 51 -7 139
-12 195 -10 90 3 109 7 170 36 48 22 66 36 59 43 -11 11 -129 13 -203 4 -77
-10 -150 -13 -150 -5 0 4 -27 14 -60 23 -45 13 -58 21 -54 32 4 8 1 15 -5 15
-6 0 -11 7 -11 15 0 8 -12 17 -27 21 -16 3 -38 9 -50 14 -15 6 -23 6 -23 0 0
-6 -18 -10 -40 -10 -29 0 -40 -4 -40 -15 0 -11 -11 -15 -40 -15 -22 0 -40 5
-40 10 0 6 -7 10 -15 10 -9 0 -20 11 -25 24 -5 14 -20 26 -37 31 -35 8 -52 23
-66 55 l-11 25 -4 -27 c-3 -25 -7 -28 -43 -28 -23 0 -39 5 -39 11 0 9 -30 10
-109 6 -74 -4 -112 -2 -120 6 -8 8 -11 8 -11 -1 0 -9 -6 -9 -25 0 -36 16 -30
39 22 78 42 32 51 34 110 33 36 -1 71 -7 78 -13 9 -7 14 -7 17 -1 1 6 52 13
114 15 61 3 133 10 160 16 62 14 200 14 329 -1 55 -6 129 -11 165 -12 68 0
140 17 140 34 0 6 4 8 8 5 5 -3 26 1 48 9 21 7 51 11 65 8 15 -3 32 1 40 10 8
8 25 18 37 21 12 4 22 14 22 22 0 8 7 17 15 20 8 4 15 12 15 20 0 8 12 37 26
64 29 56 27 88 -5 70 -11 -5 -38 -10 -60 -10 -32 0 -41 4 -41 17 0 15 -1 15
-18 0 -10 -10 -26 -17 -36 -17 -19 0 -46 -23 -46 -38 0 -6 -13 -16 -30 -24
-16 -7 -30 -19 -30 -26 0 -10 -11 -13 -40 -10 -22 2 -40 0 -40 -4 0 -15 -22
-8 -52 17 -16 14 -37 25 -45 25 -24 0 -55 41 -49 65 3 11 6 23 6 28 0 4 6 7
13 7 7 0 27 14 45 30 24 22 32 35 27 50 -6 20 -25 28 -25 10 0 -5 -6 -7 -13
-4 -7 2 -44 -16 -82 -41 -38 -25 -72 -45 -75 -45 -7 0 7 -116 15 -130 2 -4 11
-35 19 -69 l14 -62 -25 -10 c-13 -5 -30 -6 -36 -2 -7 4 -3 9 9 14 14 6 10 8
-18 8 -20 1 -40 6 -44 12 -4 7 -26 9 -58 6 -28 -2 -80 -1 -115 4 -46 7 -67 6
-72 -2 -4 -8 -16 -4 -37 11 -28 21 -34 22 -74 10 -24 -7 -87 -15 -141 -17 -53
-3 -95 -8 -92 -12 2 -5 -13 -8 -34 -7 -26 0 -51 -8 -81 -28 -31 -21 -50 -26
-71 -22 -21 4 -29 2 -29 -8 0 -19 -37 -27 -153 -35 -71 -4 -97 -3 -97 6 0 6
-6 13 -12 16 -15 5 15 39 45 50 9 3 17 11 17 17 0 5 7 10 16 10 8 0 13 4 10 8
-2 4 -1 14 5 22 6 10 9 11 9 3 0 -7 7 -13 16 -13 10 0 14 6 11 14 -6 14 21 46
39 46 5 0 15 10 22 21 22 35 2 44 -65 30 -32 -6 -80 -13 -108 -14 -45 -2 -50
0 -47 18 13 72 13 97 2 110 -17 21 -30 19 -30 -5 0 -17 -7 -20 -40 -20 -22 0
-40 5 -40 10 0 6 -10 10 -23 10 -13 0 -29 6 -35 12 -10 10 -15 10 -22 -2 -8
-12 -10 -12 -16 3 -4 11 -17 17 -35 17 -16 0 -29 5 -29 10 0 13 21 13 54 0 23
-8 26 -7 26 11 0 11 4 18 9 15 5 -4 11 -1 13 6 4 11 128 27 228 29 32 1 33 1
10 9 -23 7 -22 8 10 9 19 1 58 8 85 16 38 11 41 14 15 10 -142 -18 -205 -27
-211 -31 -12 -7 -233 -34 -238 -29 -2 3 5 5 16 5 12 0 23 5 25 10 2 6 34 13
73 16 38 2 71 7 75 11 3 3 -20 3 -50 1 -60 -6 -107 3 -77 15 9 3 17 2 17 -3 0
-5 23 -6 53 -3 78 9 111 22 40 16 -67 -6 -81 4 -38 27 14 7 25 16 25 19 0 11
-79 39 -82 30 -2 -5 -12 -4 -22 4 -18 13 -18 14 0 32 17 17 19 17 22 2 4 -20
12 -21 47 -5 33 15 32 23 -7 39 -44 17 -44 17 -25 32 11 8 19 35 23 80 6 64 6
67 -15 67 -14 0 -21 -6 -21 -20 0 -23 -20 -18 -37 9 -10 16 -8 26 12 56 31 45
32 60 4 45 -29 -16 -31 -9 -8 30 12 19 24 29 27 23 11 -17 82 18 82 40 0 10 7
26 16 34 11 12 12 18 4 23 -16 10 -50 1 -50 -14 0 -6 -18 -19 -40 -28 -38 -16
-40 -16 -40 2 0 12 5 17 14 14 8 -3 16 4 20 18 8 30 8 38 -1 37 -25 -4 -33 4
-33 32 0 38 -16 69 -35 69 -21 0 -19 28 3 33 16 4 16 5 0 6 -19 1 -47 -23 -73
-63 -10 -14 -21 -26 -26 -26 -13 0 17 57 33 63 10 4 10 8 2 14 -7 4 -13 17
-15 28 -3 14 -13 21 -37 23 -20 2 -32 9 -32 18 0 8 4 14 10 14 17 0 -1 28 -21
33 -11 3 -19 14 -20 29 0 14 -3 18 -6 8 -7 -20 -34 -50 -44 -50 -4 0 -9 12
-11 28 -2 15 -8 26 -15 25 -7 -2 -10 4 -7 12 4 8 10 15 15 15 5 0 9 7 9 15 0
7 8 18 17 24 14 8 15 12 4 25 -15 17 -41 22 -41 7 0 -5 6 -12 13 -15 6 -3 -1
-3 -18 1 -41 8 -42 10 -17 36 12 13 22 31 22 40 0 10 5 26 12 37 7 10 8 23 4
27 -5 4 -11 2 -13 -4 -8 -22 -25 -14 -18 7 5 15 2 20 -14 20 -29 0 -51 -11
-51 -25 0 -12 -21 -25 -41 -25 -13 0 -11 15 8 59 9 22 25 42 35 44 19 5 25 42
8 52 -5 3 -10 1 -10 -5 0 -7 -8 -9 -20 -5 -10 3 -28 1 -40 -5 -17 -9 -20 -8
-20 9 0 12 8 21 22 23 12 2 23 9 26 17 3 10 -2 12 -19 8 -14 -3 -32 0 -43 8
-18 14 -18 15 8 25 17 6 25 15 22 23 -3 6 -9 19 -12 29 -7 19 -70 30 -97 16
-18 -9 -96 18 -97 35 0 11 48 8 55 -4 4 -6 23 -8 47 -5 51 7 62 14 48 31 -8 9
-8 15 0 20 7 4 2 15 -12 30 -12 13 -25 19 -29 14 -7 -11 -39 -1 -39 12 0 5 8
9 19 9 10 0 19 6 18 13 -1 32 4 47 17 47 14 0 29 37 20 52 -7 11 -42 10 -49
-2 -4 -6 -1 -17 5 -25 17 -21 3 -35 -36 -35 -27 0 -34 4 -34 20 0 14 7 20 24
20 18 0 25 7 30 31 8 42 8 49 -4 49 -5 0 -12 -16 -16 -35 -8 -42 -29 -41 -28
1 0 16 -4 33 -10 37 -6 5 -1 5 12 2 15 -4 24 -1 28 9 7 18 44 22 44 5 0 -5 5
-7 10 -4 6 3 10 15 10 26 0 10 -4 19 -10 19 -5 0 -10 11 -10 25 0 29 21 32 60
10 l25 -14 -27 -1 c-21 0 -28 -5 -28 -20 0 -11 4 -20 8 -20 10 0 52 43 52 53
0 3 12 19 28 36 20 23 33 29 50 25 25 -7 30 -34 7 -34 -8 0 -15 -7 -15 -15 0
-19 22 -10 39 17 10 16 10 22 0 28 -7 5 -9 15 -4 26 7 18 8 18 16 -1 8 -16 8
-15 4 8 -5 25 9 40 17 17 2 -5 8 2 15 15 9 21 8 25 -3 25 -12 0 -13 8 -8 38 7
41 14 55 14 29 0 -10 7 -17 15 -17 8 0 15 7 15 15 0 8 -5 15 -12 15 -6 0 -9 2
-7 5 10 9 49 -8 49 -21 0 -23 15 -16 39 17 17 22 26 28 35 20 7 -6 16 -8 19
-4 4 3 9 -2 13 -11 8 -22 24 -10 24 19 0 26 26 40 55 29 12 -5 24 2 38 20 20
25 24 26 42 12 17 -13 18 -15 3 -16 -9 0 -24 -14 -32 -32 -22 -43 -20 -58 4
-28 17 22 19 23 25 7 9 -21 25 -23 25 -2 0 7 6 18 14 22 8 4 16 17 19 28 2 11
5 1 6 -22 1 -36 -2 -43 -17 -43 -21 0 -79 -46 -70 -55 3 -3 11 1 18 10 7 8 20
15 28 15 12 0 13 -3 4 -12 -7 -7 -12 -16 -12 -20 0 -25 65 16 84 54 10 20 31
27 31 11 0 -5 4 -13 8 -20 4 -6 4 -19 0 -30 -6 -17 -6 -17 14 0 24 21 53 22
53 2 0 -8 -4 -15 -10 -15 -5 0 -10 -5 -10 -11 0 -7 11 -9 31 -5 17 3 42 3 55
0 24 -6 24 -7 7 -26 -17 -19 -16 -19 22 -16 34 2 40 0 37 -14 -2 -10 1 -18 6
-18 4 0 19 -10 31 -21 l23 -22 -7 22 c-5 18 -2 21 24 21 40 0 66 -10 51 -20
-21 -13 -2 -31 20 -20 11 6 28 14 38 19 10 5 38 11 62 14 25 3 37 4 28 1 -9
-3 -15 -11 -12 -19 3 -7 -3 -16 -15 -20 -12 -3 -21 -11 -21 -17 0 -15 83 1 93
18 4 8 21 14 37 14 16 0 31 4 34 9 3 5 17 11 31 13 25 5 25 5 9 -13 -16 -18
-16 -19 4 -19 12 0 39 9 59 20 31 16 33 20 15 20 -27 0 -29 20 -2 27 11 3 20
12 20 19 0 8 6 14 13 14 8 0 7 4 -3 10 -35 22 43 5 118 -26 18 -8 32 -10 32
-4 0 6 -7 10 -15 10 -8 0 -15 5 -15 10 0 6 -6 10 -13 10 -7 0 -23 18 -37 40
-16 25 -34 42 -52 45 -19 5 -28 13 -28 26 0 11 -7 19 -18 19 -9 0 -29 11 -44
25 -15 14 -35 25 -45 25 -10 0 -34 8 -53 18 -19 11 -48 22 -65 26 -16 4 -37
13 -45 21 -8 7 -28 15 -45 18 -116 20 -162 31 -176 43 -8 8 -27 14 -41 14 -15
0 -28 4 -30 9 -3 8 -205 20 -213 13z m118 -189 c-7 -2 -19 -2 -25 0 -7 3 -2 5
12 5 14 0 19 -2 13 -5z m-553 -27 c0 -8 -4 -17 -9 -21 -12 -7 -24 12 -16 25 9
15 25 12 25 -4z m577 -33 c-3 -10 -5 -4 -5 12 0 17 2 24 5 18 2 -7 2 -21 0
-30z m-646 0 c-12 -20 -14 -14 -5 12 4 9 9 14 11 11 3 -2 0 -13 -6 -23z m156
5 c-3 -8 -6 -5 -6 6 -1 11 2 17 5 13 3 -3 4 -12 1 -19z m-96 -66 c-6 -2 -11
-8 -11 -14 0 -5 -7 -16 -15 -24 -8 -9 -15 -24 -15 -34 0 -10 -7 -20 -15 -24
-22 -8 -18 13 10 59 14 22 31 51 37 65 l13 24 3 -24 c2 -13 -1 -26 -7 -28z
m-101 -12 c-15 -45 -33 -45 -20 0 11 37 20 53 28 46 3 -3 -1 -24 -8 -46z m977
-26 c-3 -3 -12 -4 -19 -1 -8 3 -5 6 6 6 11 1 17 -2 13 -5z m-1180 -66 c-3 -7
-5 -2 -5 12 0 14 2 19 5 13 2 -7 2 -19 0 -25z m83 -15 c0 -7 -7 -13 -15 -13
-8 0 -15 5 -15 10 0 6 5 10 12 10 9 0 9 3 0 12 -7 7 -12 17 -12 23 1 15 30
-26 30 -42z m84 3 c-7 -31 -15 -32 -38 -7 -17 19 -17 19 3 14 14 -3 23 0 27
11 10 25 16 12 8 -18z m46 24 c0 -5 -4 -10 -10 -10 -5 0 -10 5 -10 10 0 6 5
10 10 10 6 0 10 -4 10 -10z m-179 -103 c-8 -8 -11 -5 -11 9 0 27 14 41 18 19
2 -9 -1 -22 -7 -28z m-221 -121 c0 -8 -4 -18 -10 -21 -5 -3 -10 3 -10 14 0 12
5 21 10 21 6 0 10 -6 10 -14z m180 -1 c0 -8 -4 -15 -10 -15 -5 0 -10 7 -10 15
0 8 5 15 10 15 6 0 10 -7 10 -15z m-283 -31 c-3 -3 -12 -4 -19 -1 -8 3 -5 6 6
6 11 1 17 -2 13 -5z m123 -19 c7 -8 18 -15 25 -15 8 0 11 -8 8 -20 -4 -14 4
-30 26 -50 33 -32 42 -70 15 -70 -8 0 -13 4 -9 10 3 5 -6 17 -21 26 -22 15
-27 15 -35 3 -7 -10 -8 -5 -3 14 4 17 2 27 -6 27 -6 0 -9 4 -6 9 3 4 -1 17 -9
27 -28 36 -13 73 15 39z m132 -25 c6 0 8 -8 6 -18 -3 -12 2 -24 13 -31 11 -6
19 -18 19 -26 0 -9 10 -15 25 -15 14 0 25 -4 25 -10 0 -5 -11 -10 -25 -10 -14
0 -25 5 -25 10 0 6 -11 10 -25 10 -20 0 -25 5 -25 25 0 16 -6 25 -15 25 -9 0
-15 10 -15 26 0 20 4 25 16 20 9 -3 20 -6 26 -6z m-282 -30 c0 -5 -5 -10 -11
-10 -5 0 -7 5 -4 10 3 6 8 10 11 10 2 0 4 -4 4 -10z m-180 -84 c0 -11 -19 -15
-25 -6 -3 5 1 10 9 10 9 0 16 -2 16 -4z m280 -10 c0 -2 -7 -7 -16 -10 -8 -3
-12 -2 -9 4 6 10 25 14 25 6z m273 -3 c-7 -2 -19 -2 -25 0 -7 3 -2 5 12 5 14
0 19 -2 13 -5z m-287 -79 c19 -13 22 -20 13 -30 -9 -11 -13 -11 -25 1 -8 7
-14 18 -14 23 0 6 -6 13 -12 15 -10 4 -10 6 0 6 7 1 24 -6 38 -15z m378 -10
c22 -9 20 -24 -3 -24 -21 0 -34 13 -24 24 8 7 8 7 27 0z m-189 -34 c-3 -5 -11
-10 -16 -10 -6 0 -7 5 -4 10 3 6 11 10 16 10 6 0 7 -4 4 -10z m-151 -35 c-7
-17 -20 -20 -28 -6 -4 5 0 12 6 14 23 9 28 7 22 -8z m186 -124 c0 -6 -4 -13
-10 -16 -5 -3 -10 1 -10 9 0 9 5 16 10 16 6 0 10 -4 10 -9z m137 -103 c-3 -8
-6 -5 -6 6 -1 11 2 17 5 13 3 -3 4 -12 1 -19z m-72 -138 c-3 -5 -13 -10 -21
-10 -8 0 -12 5 -9 10 3 6 13 10 21 10 8 0 12 -4 9 -10z m272 -112 c-3 -8 -6
-5 -6 6 -1 11 2 17 5 13 3 -3 4 -12 1 -19z m73 -68 c0 -5 -5 -10 -11 -10 -5 0
-7 5 -4 10 3 6 8 10 11 10 2 0 4 -4 4 -10z m180 -260 c0 -5 -4 -10 -10 -10 -5
0 -10 5 -10 10 0 6 5 10 10 10 6 0 10 -4 10 -10z m-165 -580 c-11 -5 -27 -9
-35 -9 -9 0 -8 4 5 9 11 5 27 9 35 9 9 0 8 -4 -5 -9z m-552 -206 c38 -4 57
-10 57 -19 0 -9 14 -15 38 -17 30 -2 38 -7 40 -25 3 -17 10 -23 28 -23 22 0
23 -3 14 -20 -17 -32 -50 -33 -107 -5 -29 14 -64 25 -76 25 -13 0 -38 5 -56
11 -23 8 -44 8 -80 -1 -54 -13 -91 -45 -114 -100 l-14 -35 -8 48 c-10 64 7
118 47 152 33 28 51 29 231 9z m857 -14 c0 -5 -4 -10 -10 -10 -5 0 -10 5 -10
10 0 6 5 10 10 10 6 0 10 -4 10 -10z m1307 -116 c-3 -3 -12 -4 -19 -1 -8 3 -5
6 6 6 11 1 17 -2 13 -5z m-2158 -110 c-7 -9 -18 -25 -24 -37 -15 -31 -33 -32
-46 -3 -15 31 -10 37 29 38 22 1 32 7 37 22 4 14 8 16 12 8 3 -7 -1 -20 -8
-28z m1002 5 c9 -18 7 -25 -12 -45 -21 -21 -30 -23 -81 -17 -66 7 -78 23 -18
23 22 0 40 5 40 10 0 6 6 10 14 10 7 0 16 9 19 20 7 26 23 25 38 -1z m-1227
-48 c-6 -6 -24 19 -24 34 1 6 7 1 15 -9 8 -11 12 -22 9 -25z m41 -30 c3 -5 1
-12 -5 -16 -5 -3 -10 1 -10 9 0 18 6 21 15 7z m152 -28 c16 -42 59 -84 119
-114 35 -18 64 -38 64 -45 0 -39 -110 -20 -137 24 -9 15 -21 32 -27 37 -6 6
-24 34 -39 63 -27 50 -28 52 -7 52 11 0 24 -8 27 -17z m-117 -14 c0 -6 -4 -7
-10 -4 -5 3 -10 11 -10 16 0 6 5 7 10 4 6 -3 10 -11 10 -16z m471 -118 l24
-19 -27 -12 c-35 -16 -123 -2 -123 20 0 9 13 17 35 21 59 11 67 10 91 -10z
m869 -2 c25 0 68 -2 96 -5 59 -6 69 -24 49 -83 -10 -29 -12 -31 -24 -17 -11
14 -11 16 3 16 9 0 16 5 16 10 0 6 -18 10 -40 10 -23 0 -40 -5 -40 -11 0 -6
-9 -1 -19 12 -15 19 -20 21 -24 9 -18 -62 -25 -75 -38 -71 -25 6 -52 5 -111
-3 -50 -6 -59 -5 -77 13 -39 39 -16 114 39 124 14 3 48 3 75 0 28 -3 70 -5 95
-4z m-1140 -100 c0 -3 12 -6 28 -7 15 0 60 -8 100 -16 58 -13 76 -13 92 -4 11
7 20 18 20 24 0 23 69 24 128 2 31 -12 63 -26 70 -31 21 -16 14 -65 -15 -97
-25 -28 -35 -32 -105 -37 -55 -4 -78 -3 -78 6 0 6 -13 11 -30 11 -16 0 -30 5
-30 10 0 6 -6 10 -13 10 -7 0 -20 8 -28 18 -29 32 -69 62 -83 62 -7 0 -19 7
-26 15 -7 8 -16 15 -21 15 -10 0 -49 36 -49 45 0 3 9 0 20 -7 11 -7 20 -16 20
-19z m1780 2 c0 -6 -4 -13 -10 -16 -5 -3 -10 1 -10 9 0 9 5 16 10 16 6 0 10
-4 10 -9z m-340 -151 c0 -5 -8 -10 -17 -10 -15 0 -16 2 -3 10 19 12 20 12 20
0z m187 -302 c35 -25 42 -45 18 -54 -8 -3 -17 -16 -21 -27 -19 -67 -28 -77
-66 -77 -21 0 -38 5 -38 10 0 6 -6 10 -14 10 -7 0 -25 9 -40 21 -21 17 -26 18
-26 5 0 -9 -7 -16 -15 -16 -14 0 -19 11 -16 37 1 6 -4 15 -10 18 -17 11 45 62
85 69 20 4 36 11 36 16 0 19 74 10 107 -12z m-412 -12 c33 1 49 -1 35 -3 -28
-6 -49 -30 -50 -58 -1 -18 -1 -19 -11 -2 -14 24 -38 21 -45 -7 -10 -42 -93
-41 -95 2 0 14 -2 14 -8 -2 -7 -19 -8 -19 -13 1 -9 33 2 72 18 66 8 -3 14 0
14 7 0 10 12 11 48 4 26 -4 74 -8 107 -8z m112 -56 c3 -16 12 -30 19 -30 19 0
18 -16 -2 -24 -25 -10 -40 -7 -61 12 -21 18 -19 40 6 59 24 19 31 16 38 -17z
m453 -16 c0 -28 -15 -32 -29 -6 -7 13 -7 22 1 30 16 16 28 5 28 -24z m-100 1
c0 -8 -4 -15 -10 -15 -5 0 -7 7 -4 15 4 8 8 15 10 15 2 0 4 -7 4 -15z m44 -17
c16 -11 -6 -10 -23 1 -8 5 -10 14 -5 22 6 10 9 10 12 -1 3 -8 10 -18 16 -22z
m276 -73 c0 -9 -9 -15 -21 -15 -18 0 -19 2 -9 15 7 8 16 15 21 15 5 0 9 -7 9
-15z m-327 -12 c-7 -2 -19 -2 -25 0 -7 3 -2 5 12 5 14 0 19 -2 13 -5z m-2846
-319 c-3 -3 -12 -4 -19 -1 -8 3 -5 6 6 6 11 1 17 -2 13 -5z m3181 -8 c-7 -7
-19 -11 -27 -8 -11 4 -10 7 5 13 29 12 36 10 22 -5z m-3128 -16 c0 -5 -7 -7
-15 -4 -8 4 -12 10 -9 15 6 11 24 2 24 -11z m60 -30 c0 -5 -2 -10 -4 -10 -2 0
-12 -3 -22 -7 -16 -6 -17 -5 -4 10 17 19 30 22 30 7z m83 -58 c12 -18 63 -42
92 -42 25 0 34 -14 15 -25 -19 -12 -9 -30 30 -57 22 -15 40 -34 40 -42 0 -8 6
-17 13 -19 6 -3 2 -6 -10 -6 -20 -1 -34 12 -73 68 -8 11 -23 21 -33 21 -10 0
-25 13 -35 29 -9 16 -31 35 -50 42 -28 11 -62 51 -62 74 0 9 64 -28 73 -43z
m262 39 c10 -18 -17 -23 -33 -7 -15 15 -15 16 5 16 12 0 24 -4 28 -9z m-45
-181 c0 -11 -4 -20 -10 -20 -5 0 -10 2 -10 4 0 2 -3 11 -6 20 -4 11 -1 16 10
16 9 0 16 -8 16 -20z m41 -90 c21 -17 41 -40 44 -51 4 -10 20 -26 36 -34 16
-9 29 -21 29 -27 0 -6 11 -21 25 -34 13 -12 27 -35 30 -51 5 -19 4 -24 -3 -15
-5 8 -20 19 -33 26 -13 6 -25 22 -27 34 -2 12 -9 22 -15 22 -13 0 -87 70 -87
83 0 4 -13 20 -30 34 -58 48 -30 60 31 13z m207 -242 c18 -18 15 -28 -8 -28
-13 0 -20 7 -20 20 0 23 10 26 28 8z m-353 -38 c3 -5 1 -10 -4 -10 -6 0 -11 5
-11 10 0 6 2 10 4 10 3 0 8 -4 11 -10z m-227 -187 c-5 -25 -28 -28 -28 -4 0
12 6 21 16 21 9 0 14 -7 12 -17z m45 -150 c-7 -2 -19 -2 -25 0 -7 3 -2 5 12 5
14 0 19 -2 13 -5z m-156 -93 c-3 -11 0 -18 6 -17 6 1 13 -7 15 -18 5 -22 91
-105 110 -105 4 0 13 -12 19 -27 7 -16 24 -40 38 -55 14 -15 25 -34 25 -43 0
-28 -27 -16 -44 20 -11 22 -32 43 -56 55 -59 30 -110 89 -110 127 0 24 -8 38
-32 57 l-33 26 34 0 c28 0 33 -3 28 -20z m3796 -349 c35 -54 52 -142 51 -257
-2 -91 -5 -108 -33 -167 -66 -138 -187 -214 -326 -205 -56 4 -145 34 -145 49
0 9 45 25 115 39 86 17 120 36 176 94 21 22 33 98 24 158 -5 34 -3 47 9 57 9
8 16 20 16 27 0 8 6 14 13 14 18 0 61 70 68 110 l5 35 11 -35 11 -35 1 43 c1
28 -3 42 -12 42 -17 0 -113 80 -96 80 9 1 7 6 -6 16 -17 12 -17 16 -6 24 20
11 92 -41 124 -89z m-4006 76 c3 -4 14 -7 23 -7 20 0 77 -27 85 -41 4 -5 15
-9 26 -9 10 0 19 -4 19 -9 0 -19 -34 -20 -90 -1 -33 11 -69 20 -80 20 -33 0
-90 28 -90 44 0 11 11 14 50 12 27 -1 53 -6 57 -9z m-107 -37 c0 -5 -7 -7 -15
-4 -8 4 -15 8 -15 10 0 2 7 4 15 4 8 0 15 -4 15 -10z m3591 -48 c-17 -6 -13
-22 7 -22 12 -1 9 -5 -10 -16 -16 -8 -28 -23 -28 -35 0 -20 -25 -37 -38 -25
-3 4 -1 16 6 26 7 11 12 31 12 44 0 31 53 75 59 48 2 -9 -2 -18 -8 -20z
m-3291 -12 c-8 -5 -26 -9 -40 -9 -23 0 -23 1 -5 9 11 5 29 9 40 9 17 1 17 -1
5 -9z m60 -18 c0 -4 14 -13 31 -21 47 -21 20 -35 -30 -15 -43 17 -56 44 -21
44 11 0 20 -3 20 -8z m3447 -125 c13 -29 0 -57 -28 -57 -24 0 -33 21 -25 55 8
32 39 33 53 2z m-4267 -123 c0 -9 9 -18 21 -21 11 -3 25 -16 30 -29 6 -16 16
-24 31 -23 22 1 22 1 -2 9 -19 6 -12 8 30 9 41 0 51 -2 40 -10 -11 -7 9 -8 66
-4 55 5 84 3 88 -4 4 -6 15 -11 25 -11 10 0 24 -7 31 -15 7 -8 16 -13 20 -10
5 3 6 -4 3 -15 -4 -15 0 -20 14 -20 10 0 23 -4 29 -10 5 -5 70 -12 144 -16
133 -7 135 -7 135 -30 0 -18 -6 -24 -21 -24 -19 0 -34 -17 -34 -39 0 -8 53
-35 95 -47 19 -6 31 -17 33 -30 2 -13 16 -25 39 -33 20 -8 47 -26 61 -42 13
-16 32 -29 43 -29 10 0 19 -7 19 -15 0 -8 4 -15 8 -15 4 0 16 -15 27 -32 10
-18 24 -37 32 -41 7 -4 13 -24 13 -42 0 -19 4 -35 9 -35 5 0 12 -8 15 -17 4
-10 26 -40 51 -68 25 -27 45 -56 45 -62 0 -19 -30 -15 -37 5 -4 9 -17 25 -30
35 -13 10 -23 24 -23 30 0 24 -140 157 -164 157 -6 0 -28 21 -48 48 -24 30
-49 51 -70 57 -28 8 -33 15 -33 40 0 23 -4 30 -20 30 -11 0 -26 10 -33 23 -7
12 -21 22 -31 22 -25 0 -32 10 -20 31 6 13 6 19 -1 19 -5 0 -10 -7 -10 -15 0
-19 -19 -19 -57 0 -16 8 -40 12 -54 9 -13 -3 -48 -5 -76 -4 -43 0 -53 -3 -53
-16 0 -13 -6 -15 -31 -10 -17 3 -43 6 -58 6 -25 1 -25 1 -7 15 28 21 12 30
-52 30 -32 0 -63 4 -69 8 -7 5 -18 5 -24 2 -18 -11 -79 5 -79 20 0 10 11 15
35 15 24 0 35 5 35 15 0 10 -11 15 -35 15 -28 0 -35 4 -35 20 0 13 -7 20 -20
20 -27 0 -94 46 -76 53 10 4 12 19 8 56 -4 42 -2 51 12 51 9 0 16 -7 16 -16z
m1025 -235 c11 -17 -1 -21 -15 -4 -8 9 -8 15 -2 15 6 0 14 -5 17 -11z m3613
-200 c-2 -6 -8 -10 -13 -10 -5 0 -11 4 -13 10 -2 6 4 11 13 11 9 0 15 -5 13
-11z m-60 -30 c4 -19 -27 -34 -41 -20 -14 14 0 43 20 39 10 -2 19 -10 21 -19z
m-4133 -39 c10 -16 -15 -40 -41 -40 -15 0 -24 -6 -24 -15 0 -8 -7 -15 -15 -15
-8 0 -15 7 -15 15 0 9 -10 15 -26 15 -44 0 -21 24 30 32 27 4 51 9 54 12 9 10
30 7 37 -4z m3948 -13 c-2 -4 -3 -14 -3 -22 0 -9 -9 -15 -23 -15 -19 0 -23 5
-21 23 1 12 3 23 3 24 1 2 11 1 24 -1 12 -1 21 -6 20 -9z m97 4 c0 -5 -7 -11
-15 -15 -9 -3 -15 0 -15 9 0 8 7 15 15 15 8 0 15 -4 15 -9z m-187 -41 c3 -13
-3 -24 -19 -35 -31 -20 -44 -12 -44 26 0 25 4 29 29 29 20 0 30 -6 34 -20z
m-207 -87 c-10 -10 -19 5 -10 18 6 11 8 11 12 0 2 -7 1 -15 -2 -18z m-3976
-183 c-8 -5 -19 -10 -25 -10 -5 0 -3 5 5 10 8 5 20 10 25 10 6 0 3 -5 -5 -10z
m5260 -50 c0 -5 -2 -10 -4 -10 -3 0 -8 5 -11 10 -3 6 -1 10 4 10 6 0 11 -4 11
-10z m-4455 -20 c3 -5 15 -10 27 -10 11 0 31 -9 45 -20 14 -11 39 -20 54 -20
16 0 29 -4 29 -9 0 -5 20 -18 44 -30 25 -11 47 -25 51 -31 3 -5 14 -10 24 -10
20 0 58 -37 48 -47 -9 -9 -85 17 -98 34 -6 7 -20 13 -30 13 -11 0 -19 4 -19 9
0 5 -34 26 -75 46 -42 20 -95 48 -118 61 -39 22 -40 24 -15 24 15 0 30 -4 33
-10z m-871 -109 c3 -5 0 -11 -7 -14 -18 -7 -67 3 -67 14 0 12 67 12 74 0z m-5
-105 c-11 -9 -69 -14 -69 -6 0 6 17 10 37 10 20 0 34 -2 32 -4z m41 -73 l55
-7 -50 -7 c-95 -13 -115 -11 -115 12 0 18 4 20 28 15 15 -3 52 -9 82 -13z
m470 -53 c0 -5 -9 -10 -19 -10 -11 0 -23 5 -26 10 -4 6 5 10 19 10 14 0 26 -4
26 -10z m136 -67 c-7 -8 -46 12 -46 24 0 11 5 10 24 -4 13 -10 23 -19 22 -20z
m67 -10 c-7 -2 -21 -2 -30 0 -10 3 -4 5 12 5 17 0 24 -2 18 -5z"/>
<path d="M4320 1240 c0 -5 5 -10 11 -10 5 0 7 5 4 10 -3 6 -8 10 -11 10 -2 0
-4 -4 -4 -10z"/>
<path d="M290 1400 c-12 -8 -11 -10 7 -10 17 0 22 -7 25 -31 3 -27 5 -29 21
-17 20 15 14 48 -9 48 -8 0 -14 5 -14 10 0 13 -11 13 -30 0z"/>
<path d="M546 1361 c-4 -7 -5 -15 -2 -18 9 -9 19 4 14 18 -4 11 -6 11 -12 0z"/>
<path d="M960 1140 c0 -5 7 -7 15 -4 8 4 15 8 15 10 0 2 -7 4 -15 4 -8 0 -15
-4 -15 -10z"/>
<path d="M1073 1063 c9 -2 23 -2 30 0 6 3 -1 5 -18 5 -16 0 -22 -2 -12 -5z"/>
<path d="M2687 7023 c-13 -12 -7 -23 14 -23 13 0 18 -4 13 -12 -5 -10 -4 -10
5 -2 6 6 9 18 5 27 -6 17 -25 22 -37 10z"/>
<path d="M2670 6979 c0 -5 5 -7 10 -4 6 3 10 8 10 11 0 2 -4 4 -10 4 -5 0 -10
-5 -10 -11z"/>
<path d="M3120 6940 c0 -5 7 -10 16 -10 8 0 12 5 9 10 -3 6 -10 10 -16 10 -5
0 -9 -4 -9 -10z"/>
<path d="M2320 6746 c0 -2 6 -9 14 -15 10 -9 15 -8 20 4 4 10 -1 15 -14 15
-11 0 -20 -2 -20 -4z"/>
<path d="M2740 5854 c0 -14 3 -14 15 -4 8 7 15 14 15 16 0 2 -7 4 -15 4 -8 0
-15 -7 -15 -16z"/>
<path d="M3965 5741 c-22 -4 -69 -21 -106 -39 -36 -17 -84 -34 -107 -38 -23
-3 -47 -13 -53 -20 -6 -8 -25 -14 -42 -14 -35 0 -68 -25 -60 -46 3 -8 0 -14
-7 -14 -7 0 -19 -8 -26 -17 -10 -14 -15 -15 -25 -6 -9 9 -20 3 -48 -26 -20
-20 -51 -46 -68 -56 -18 -11 -33 -27 -33 -36 0 -11 -13 -22 -35 -29 -32 -11
-35 -15 -35 -50 0 -60 -7 -70 -43 -63 -18 3 -35 10 -38 16 -4 5 -20 10 -35 10
-16 0 -23 2 -16 4 17 6 15 23 -3 23 -32 0 -65 -23 -65 -47 0 -20 5 -23 40 -23
22 0 40 5 40 10 0 6 9 10 20 10 13 0 20 -7 20 -20 0 -13 7 -20 20 -20 11 0 20
-4 20 -10 0 -5 -9 -10 -20 -10 -11 0 -20 5 -20 10 0 15 -29 12 -46 -4 -15 -16
-20 -86 -5 -86 5 0 13 9 16 20 5 15 15 20 40 20 27 0 34 -4 37 -22 3 -21 8
-23 70 -23 36 0 64 -3 61 -7 -2 -5 -33 -8 -69 -8 -39 0 -64 -4 -64 -11 0 -7
28 -9 88 -5 65 4 76 3 42 -4 -25 -5 -71 -9 -102 -9 -46 -1 -58 -4 -58 -17 0
-12 6 -15 23 -11 35 9 174 17 149 9 -21 -7 -22 -8 -6 -30 11 -16 22 -21 35
-17 10 4 19 2 19 -4 0 -5 12 -11 27 -13 34 -4 44 -28 11 -27 -22 0 -22 1 -3 9
19 8 19 9 -2 9 -12 1 -28 4 -37 7 -10 4 -16 1 -16 -9 0 -10 -7 -13 -19 -10
-24 6 -37 -14 -14 -21 30 -9 297 -11 311 -3 9 6 9 13 1 30 -9 16 -9 22 0 25
16 5 14 62 -2 62 -7 0 -31 -9 -52 -20 -29 -15 -50 -19 -77 -14 -44 7 -51 24
-10 24 44 0 152 40 152 56 0 8 -4 14 -8 14 -5 0 -8 16 -7 36 1 42 40 82 116
121 34 17 39 23 22 23 -13 0 -23 -4 -23 -9 0 -5 -16 -15 -35 -22 -19 -7 -35
-17 -35 -23 0 -5 -3 -6 -6 -3 -4 4 -20 -3 -36 -14 -16 -12 -32 -18 -35 -15 -4
3 2 13 13 20 25 19 12 31 -16 16 -32 -17 -48 1 -33 40 9 25 8 31 -11 44 -15
11 -18 17 -9 23 7 5 16 26 21 48 6 33 13 40 40 47 18 5 32 15 32 22 0 9 26 20
70 31 59 15 79 15 118 6 101 -26 125 -36 130 -53 2 -10 8 -18 13 -18 5 0 9
-18 9 -39 0 -23 5 -41 13 -44 6 -2 1 -2 -11 0 -14 2 -21 0 -17 -6 7 -13 -39
-26 -56 -15 -8 5 -9 3 -4 -6 6 -9 1 -10 -16 -5 -17 4 -20 3 -10 -3 10 -7 -4
-15 -52 -31 -35 -12 -73 -31 -83 -43 -17 -19 -15 -19 27 4 56 32 240 94 331
114 136 28 224 12 250 -47 15 -33 17 -34 63 -15 45 19 45 26 0 19 -30 -5 -38
-1 -68 30 -18 20 -44 38 -58 41 -13 3 -51 10 -83 17 -41 8 -55 14 -45 20 10 6
10 9 2 9 -7 0 -13 7 -13 15 0 8 6 15 14 15 18 0 33 43 17 48 -8 3 -8 9 -1 23
8 13 7 25 0 40 -9 15 -8 24 1 36 11 13 10 18 -6 29 -17 13 -20 12 -26 -3 -4
-13 -11 -8 -29 24 -23 42 -61 62 -83 45 -7 -5 -21 -6 -32 -1 -24 9 -74 9 -130
0z m288 -308 c-7 -2 -21 -2 -30 0 -10 3 -4 5 12 5 17 0 24 -2 18 -5z m-566
-209 c-3 -3 -12 -4 -19 -1 -8 3 -5 6 6 6 11 1 17 -2 13 -5z m-366 -67 c-13
-13 -26 -3 -16 12 3 6 11 8 17 5 6 -4 6 -10 -1 -17z m149 -17 c-12 -8 -12 -10
-1 -10 8 0 12 -2 9 -5 -3 -3 -13 -2 -22 1 -14 5 -15 9 -4 15 7 5 18 9 23 9 6
0 3 -5 -5 -10z m34 -49 c14 -5 16 -10 8 -15 -7 -4 -22 0 -34 8 -24 17 -9 21
26 7z m16 -45 c0 -2 -7 -6 -15 -10 -8 -3 -15 -1 -15 4 0 6 7 10 15 10 8 0 15
-2 15 -4z m83 -18 c-2 -5 -17 -8 -34 -8 -16 0 -29 3 -29 8 0 4 15 7 34 7 19 0
32 -3 29 -7z m106 -21 c-1 -20 -2 -21 -7 -2 l-5 20 -8 -20 c-6 -15 -8 -16 -8
-4 -1 12 -8 15 -28 11 -16 -2 -25 -2 -22 2 3 3 18 7 32 8 15 1 27 6 27 11 0 4
5 5 10 2 6 -3 9 -16 9 -28z"/>
<path d="M4880 5580 c0 -21 -1 -26 -15 -47 -10 -15 -11 -24 -4 -28 6 -4 15
-18 20 -33 7 -19 13 -22 21 -14 7 7 20 12 30 12 10 0 20 10 24 25 3 14 12 25
20 25 8 0 14 7 14 15 0 8 -4 15 -9 15 -5 0 -11 9 -14 21 -6 23 -27 17 -27 -7
0 -21 -17 -17 -23 6 -5 20 -37 29 -37 10z"/>
<path d="M3185 5570 c3 -5 8 -10 11 -10 2 0 4 5 4 10 0 6 -5 10 -11 10 -5 0
-7 -4 -4 -10z"/>
<path d="M4755 5538 c-35 -31 -72 -94 -61 -105 2 -3 15 4 27 16 13 12 27 21
32 21 12 0 46 42 47 58 0 6 -6 12 -12 12 -9 0 -8 3 2 10 8 5 12 12 9 15 -4 3
-23 -9 -44 -27z m15 -33 c0 -8 -4 -15 -10 -15 -5 0 -7 7 -4 15 4 8 8 15 10 15
2 0 4 -7 4 -15z"/>
<path d="M3120 5510 c0 -22 8 -25 30 -10 13 9 13 11 0 20 -22 15 -30 12 -30
-10z"/>
<path d="M3265 5477 c-4 -10 -5 -21 -1 -24 10 -10 18 4 13 24 -4 17 -4 17 -12
0z"/>
<path d="M3145 5439 c-4 -5 0 -18 8 -27 8 -9 13 -22 10 -28 -4 -12 34 -23 55
-16 7 2 12 14 12 26 0 12 5 27 12 34 14 14 8 15 -26 3 -18 -7 -28 -6 -36 5
-15 17 -26 18 -35 3z"/>
<path d="M4733 5429 c-30 -9 -46 -29 -23 -29 16 0 60 23 60 32 0 4 -1 8 -2 7
-2 0 -18 -5 -35 -10z"/>
<path d="M4210 5380 c0 -5 -22 -10 -50 -10 -47 0 -65 -11 -37 -24 6 -3 1 -3
-12 0 -14 4 -21 2 -18 -3 4 -6 -25 -22 -63 -37 -39 -15 -72 -32 -76 -37 -3 -5
-14 -9 -25 -9 -11 0 -17 -4 -14 -10 3 -5 2 -10 -4 -10 -5 0 -18 -3 -28 -6 -15
-5 -15 -4 -3 5 13 9 12 11 -4 11 -10 0 -39 -21 -63 -47 -45 -47 -45 -47 -40
-106 3 -32 7 -61 10 -63 3 -3 46 9 97 26 51 16 99 30 106 30 8 0 14 5 14 10 0
6 12 10 28 10 17 0 32 8 40 21 7 11 19 18 26 16 17 -7 13 32 -5 44 -11 7 -10
11 8 24 13 9 20 22 17 30 -4 10 1 15 16 15 19 0 21 4 15 29 -5 22 -1 35 14 50
12 12 28 21 37 21 8 0 22 7 30 15 14 13 14 15 0 15 -9 0 -16 -4 -16 -10z
m-130 -209 c0 -11 -106 -57 -152 -65 -60 -11 -53 11 9 29 32 10 72 23 88 30
36 16 55 18 55 6z"/>
<path d="M3120 5365 c0 -8 7 -15 15 -15 8 0 15 7 15 15 0 8 -7 15 -15 15 -8 0
-15 -7 -15 -15z"/>
<path d="M3682 5340 c0 -14 2 -19 5 -12 2 6 2 18 0 25 -3 6 -5 1 -5 -13z"/>
<path d="M2930 5306 c0 -2 7 -6 15 -10 8 -3 15 -1 15 4 0 6 -7 10 -15 10 -8 0
-15 -2 -15 -4z"/>
<path d="M2923 5253 c-24 -9 -13 -20 24 -26 43 -7 58 0 42 19 -11 14 -42 17
-66 7z"/>
<path d="M4385 5250 c-3 -4 -18 -10 -35 -13 -21 -5 -30 -12 -30 -26 0 -11 -5
-23 -11 -26 -6 -4 -8 -13 -5 -21 3 -8 -3 -22 -14 -31 -11 -10 -20 -22 -20 -28
0 -16 80 -11 91 6 12 19 11 69 -1 69 -5 0 -10 11 -10 24 0 26 36 42 70 31 10
-3 21 -1 25 5 3 5 3 10 -2 11 -4 0 -18 2 -31 3 -13 2 -25 0 -27 -4z"/>
<path d="M4424 5185 c-3 -19 -11 -35 -18 -35 -6 0 -2 -7 8 -15 27 -20 36 -10
36 41 0 52 -16 58 -26 9z"/>
<path d="M3125 5060 c-25 -11 1 -11 35 0 20 6 21 8 5 8 -11 0 -29 -3 -40 -8z"/>
<path d="M3338 5063 c7 -3 16 -2 19 1 4 3 -2 6 -13 5 -11 0 -14 -3 -6 -6z"/>
<path d="M4028 5060 c-4 -12 -107 -38 -185 -46 -51 -6 -63 -10 -61 -23 4 -17
29 -18 128 -5 61 8 133 43 138 68 4 17 -14 23 -20 6z"/>
<path d="M3268 5033 c6 -2 18 -2 25 0 6 3 1 5 -13 5 -14 0 -19 -2 -12 -5z"/>
<path d="M3196 5001 c-3 -4 6 -6 19 -3 14 2 25 6 25 8 0 8 -39 4 -44 -5z"/>
<path d="M4225 4980 c-3 -5 -1 -10 4 -10 6 0 11 5 11 10 0 6 -2 10 -4 10 -3 0
-8 -4 -11 -10z"/>
<path d="M4250 4970 c0 -5 5 -10 10 -10 6 0 10 5 10 10 0 6 -4 10 -10 10 -5 0
-10 -4 -10 -10z"/>
<path d="M2910 4950 c0 -15 7 -20 25 -20 18 0 25 5 25 20 0 15 -7 20 -25 20
-18 0 -25 -5 -25 -20z"/>
<path d="M3217 4953 c-10 -3 -16 -10 -14 -16 6 -20 31 -18 45 3 13 21 9 23
-31 13z"/>
<path d="M3178 4883 c7 -3 16 -2 19 1 4 3 -2 6 -13 5 -11 0 -14 -3 -6 -6z"/>
<path d="M3120 4860 c0 -5 4 -10 9 -10 6 0 13 5 16 10 3 6 -1 10 -9 10 -9 0
-16 -4 -16 -10z"/>
<path d="M3265 4600 c-3 -5 -1 -10 4 -10 6 0 11 5 11 10 0 6 -2 10 -4 10 -3 0
-8 -4 -11 -10z"/>
<path d="M4640 4539 c0 -5 9 -9 20 -9 11 0 20 2 20 4 0 2 -9 6 -20 9 -11 3
-20 1 -20 -4z"/>
<path d="M4955 4525 c-46 -20 -114 -33 -117 -23 -2 5 -11 6 -21 2 -17 -6 -17
-7 0 -19 19 -13 123 -53 158 -62 16 -3 20 1 22 24 1 15 3 41 5 57 4 35 -7 39
-47 21z"/>
<path d="M3635 4520 c-3 -5 -1 -10 4 -10 6 0 11 5 11 10 0 6 -2 10 -4 10 -3 0
-8 -4 -11 -10z"/>
<path d="M4215 4380 c-3 -5 3 -10 14 -10 12 0 21 5 21 10 0 6 -6 10 -14 10 -8
0 -18 -4 -21 -10z"/>
<path d="M1722 4140 c-34 -4 -65 -10 -68 -13 -6 -6 52 -67 64 -67 4 1 25 14
47 30 22 17 48 33 58 36 9 4 17 9 17 13 0 9 -43 10 -118 1z"/>
<path d="M1438 4115 c-3 -3 -56 -6 -119 -6 -63 -1 -116 -5 -119 -10 -5 -8
-120 -18 -460 -39 -91 -6 -172 -13 -180 -16 -8 -3 -64 -8 -125 -11 -60 -3
-111 -9 -113 -14 -2 -5 -11 -9 -20 -9 -9 0 -37 -11 -62 -25 -25 -13 -53 -27
-62 -31 -10 -3 -18 -10 -18 -14 0 -5 -17 -14 -37 -21 -20 -6 -46 -20 -57 -30
-11 -11 -30 -19 -43 -19 l-23 0 0 -229 0 -230 38 7 c49 9 199 8 287 -2 l70 -8
32 36 c18 19 33 38 33 41 0 11 155 161 210 204 181 140 244 181 277 181 7 0
13 3 13 8 0 8 48 32 64 32 6 0 24 7 40 15 15 8 80 27 145 41 167 38 172 40
250 127 23 26 23 27 4 27 -11 0 -22 -2 -25 -5z"/>
<path d="M1120 3730 c0 -21 43 -55 81 -65 14 -3 38 -19 53 -36 21 -22 36 -29
67 -29 28 0 39 4 39 15 0 8 -4 15 -9 15 -4 0 -20 18 -35 40 -17 26 -34 40 -48
40 -12 0 -29 6 -37 14 -9 7 -37 16 -63 19 -43 6 -48 5 -48 -13z"/>
<path d="M5680 3692 c0 -7 -4 -11 -9 -7 -6 3 -13 -11 -16 -32 -11 -77 -27
-138 -39 -148 -21 -19 -49 -93 -43 -117 8 -29 78 -117 95 -118 6 0 12 -9 12
-21 0 -34 35 -19 38 16 4 47 22 105 32 105 6 0 10 11 10 24 0 13 7 29 15 36 8
7 15 23 15 36 0 12 -7 29 -15 38 -8 8 -15 21 -15 29 0 8 -9 25 -19 39 -11 13
-22 40 -26 61 -7 37 -34 83 -35 59z"/>
<path d="M7269 3453 c-8 -1 -44 -5 -81 -8 -109 -10 -78 -25 55 -26 l122 -2
-85 -11 -85 -12 75 -8 c41 -4 85 -10 98 -13 26 -6 31 13 5 20 -17 4 -17 5 0 6
12 1 17 9 17 30 0 28 -1 29 -53 27 -29 0 -60 -2 -68 -3z"/>
<path d="M7120 3400 c0 -5 12 -10 28 -9 24 0 25 1 7 9 -27 12 -35 12 -35 0z"/>
<path d="M5795 3199 c-52 -39 -54 -65 -10 -125 20 -27 38 -57 41 -66 4 -10 10
-15 15 -12 5 3 9 1 9 -4 0 -16 27 -73 65 -137 20 -33 45 -81 57 -107 20 -47
48 -63 64 -37 4 7 7 55 7 108 0 93 -16 171 -36 171 -5 0 -7 15 -4 34 8 47 -2
76 -24 76 -13 0 -19 -7 -19 -23 0 -12 -7 -32 -15 -44 -13 -18 -18 -20 -40 -10
-14 7 -25 17 -25 24 0 7 -8 17 -17 23 -17 9 -17 11 -1 20 28 17 42 75 26 110
-16 38 -41 38 -93 -1z"/>
<path d="M7360 3211 c0 -4 -45 -11 -100 -15 -55 -3 -145 -9 -200 -12 -55 -4
-100 -10 -100 -14 0 -3 -73 -14 -162 -23 -457 -48 -555 -59 -573 -68 -11 -4
-38 -10 -60 -11 -36 -3 -40 -6 -43 -32 -2 -15 6 -54 17 -85 36 -99 41 -131 30
-179 -8 -39 -7 -48 9 -66 30 -33 49 -76 61 -141 6 -32 11 -60 11 -61 0 -2 10
-12 22 -24 17 -16 23 -35 26 -83 4 -58 2 -64 -27 -94 -34 -36 -38 -54 -16 -73
8 -7 15 -19 15 -26 0 -8 6 -14 13 -14 15 0 57 44 57 59 0 15 44 14 85 -3 40
-17 54 -53 36 -101 -16 -45 -15 -49 23 -88 19 -19 39 -51 46 -71 6 -20 15 -36
19 -36 7 0 33 -61 38 -92 2 -10 -2 -18 -7 -18 -6 0 -9 3 -8 8 7 32 -44 58 -55
28 -4 -10 -1 -13 9 -9 16 6 20 -12 4 -22 -5 -3 -10 -13 -10 -20 0 -19 55 -75
73 -75 23 0 38 -25 42 -70 3 -31 27 -75 104 -190 54 -82 105 -163 113 -180 7
-16 16 -30 20 -30 5 0 8 -4 8 -10 0 -5 14 -33 31 -62 181 -307 239 -500 260
-863 9 -176 17 -275 25 -318 l6 -27 94 0 94 0 0 883 c0 921 -1 940 -45 1117
-25 103 -45 230 -45 292 0 31 -5 58 -10 60 -6 2 -13 64 -16 148 -7 164 4 259
50 455 13 57 21 81 47 158 7 17 14 49 16 70 4 29 2 37 -11 37 -9 0 -16 -4 -16
-9z"/>
<path d="M390 3165 c-7 -8 -9 -15 -6 -15 4 0 14 7 22 15 9 8 11 15 6 15 -5 0
-15 -7 -22 -15z"/>
<path d="M334 3136 c-6 -7 -17 -23 -24 -37 -7 -13 -16 -26 -19 -29 -7 -6 -31
-48 -31 -55 0 -3 5 -5 10 -5 6 0 10 5 10 10 0 6 9 20 20 32 11 12 20 28 20 35
0 8 12 25 28 38 18 16 22 24 12 24 -8 0 -20 -5 -26 -13z"/>
<path d="M4517 3054 c3 -9 12 -13 21 -9 8 3 19 0 23 -7 6 -10 14 -8 31 10 l22
22 -51 0 c-43 0 -51 -3 -46 -16z"/>
<path d="M221 2973 c-12 -16 -25 -33 -31 -40 -12 -14 -13 -23 -2 -23 4 0 18
17 32 38 14 20 29 40 35 44 6 5 6 8 -2 8 -6 0 -21 -12 -32 -27z"/>
<path d="M382 2914 c-27 -19 -29 -50 -2 -57 11 -3 20 -1 20 4 0 5 6 9 14 9 7
0 19 7 26 15 10 12 10 18 0 30 -16 19 -30 19 -58 -1z"/>
<path d="M126 2857 c-26 -26 -35 -57 -17 -57 12 0 55 69 48 77 -3 3 -17 -6
-31 -20z"/>
<path d="M6135 2681 c-3 -6 -13 -11 -22 -11 -9 0 -27 -12 -40 -26 -28 -31 -25
-60 11 -109 12 -16 30 -47 41 -68 37 -72 72 -96 82 -57 5 19 15 24 38 21 6 -1
2 5 -8 13 -10 8 -14 16 -9 17 5 2 -2 50 -17 107 -18 71 -29 101 -38 98 -7 -3
-12 0 -10 6 3 14 -20 22 -28 9z"/>
<path d="M946 2674 c6 -3 9 -17 8 -32 -2 -15 -2 -22 1 -16 3 6 19 8 35 6 25
-4 30 -1 30 17 0 13 -7 21 -17 22 -10 0 -29 2 -43 4 -14 2 -20 2 -14 -1z"/>
<path d="M710 2580 c0 -5 20 -10 45 -10 25 0 45 5 45 10 0 6 -20 10 -45 10
-25 0 -45 -4 -45 -10z"/>
<path d="M43 2533 c-3 -10 -15 -30 -25 -45 -19 -28 -25 -108 -8 -108 17 0 48
82 48 128 1 45 -5 53 -15 25z"/>
<path d="M865 2500 c3 -5 8 -10 11 -10 2 0 4 5 4 10 0 6 -5 10 -11 10 -5 0 -7
-4 -4 -10z"/>
<path d="M960 2494 c0 -17 22 -14 28 4 2 7 -3 12 -12 12 -9 0 -16 -7 -16 -16z"/>
<path d="M640 2410 c0 -22 25 -18 34 6 3 9 -1 14 -14 14 -13 0 -20 -7 -20 -20z"/>
<path d="M6200 2366 c0 -10 9 -16 21 -16 24 0 21 23 -4 28 -10 2 -17 -3 -17
-12z"/>
<path d="M6362 2097 c2 -12 11 -23 21 -25 25 -5 22 34 -4 41 -16 4 -20 1 -17
-16z"/>
<path d="M320 1160 c0 -5 -11 -10 -24 -10 -34 0 -41 -17 -10 -23 16 -3 28 1
31 9 3 8 12 14 20 14 8 0 11 5 8 10 -3 6 -10 10 -16 10 -5 0 -9 -4 -9 -10z"/>
<path d="M210 1140 c0 -5 9 -10 21 -10 11 0 17 5 14 10 -3 6 -13 10 -21 10 -8
0 -14 -4 -14 -10z"/>
<path d="M165 1120 c4 -6 11 -8 16 -5 14 9 11 15 -7 15 -8 0 -12 -5 -9 -10z"/>
<path d="M250 1066 c0 -9 30 -14 35 -6 4 6 -3 10 -14 10 -12 0 -21 -2 -21 -4z"/>
<path d="M720 920 c0 -5 5 -10 11 -10 5 0 7 5 4 10 -3 6 -8 10 -11 10 -2 0 -4
-4 -4 -10z"/>
<path d="M770 870 c0 -5 5 -10 10 -10 6 0 10 5 10 10 0 6 -4 10 -10 10 -5 0
-10 -4 -10 -10z"/>
<path d="M685 849 c-9 -13 -6 -15 30 -22 17 -4 24 -4 18 -1 -7 3 -13 12 -13
20 0 16 -26 19 -35 3z"/>
<path d="M0 341 c0 -5 9 -7 20 -4 26 7 26 13 0 13 -11 0 -20 -4 -20 -9z"/>
</g>
</svg>
